<?xml version="1.0" standalone="no"?>
<!DOCTYPE svg PUBLIC "-//W3C//DTD SVG 20010904//EN"
 "http://www.w3.org/TR/2001/REC-SVG-20010904/DTD/svg10.dtd">
<svg version="1.0" xmlns="http://www.w3.org/2000/svg"
 width="700.000000pt" height="700.000000pt" viewBox="0 0 700.000000 700.000000"
 preserveAspectRatio="xMidYMid meet">
<metadata>
Created by potrace 1.14, written by Peter Selinger 2001-2017
</metadata>
<g transform="translate(0.000000,700.000000) scale(0.100000,-0.100000)"
fill="#000000" stroke="none">
<path d="M4734 6559 c-291 -35 -580 -275 -749 -624 -61 -124 -95 -223 -127
-370 -17 -80 -22 -134 -22 -275 -1 -96 2 -196 7 -221 48 -295 197 -529 399
-629 180 -88 358 -85 553 11 291 143 521 452 625 840 59 218 61 503 5 709 -22
81 -82 212 -130 284 -127 191 -350 300 -561 275z"/>
<path d="M2100 6553 c-240 -40 -452 -262 -526 -553 -31 -123 -35 -152 -39
-300 -3 -119 3 -199 20 -289 3 -14 8 -41 11 -60 3 -19 10 -45 15 -58 5 -13 7
-23 4 -23 -8 0 67 -197 107 -278 193 -399 569 -661 876 -611 93 15 104 18 185
58 136 66 231 165 306 318 81 165 106 285 106 518 0 158 -6 214 -34 336 -108
464 -393 813 -754 924 -50 16 -224 27 -277 18z"/>
<path d="M513 4796 c-253 -58 -441 -273 -498 -570 -16 -82 -13 -289 4 -361 7
-27 14 -57 16 -65 9 -45 53 -155 87 -223 124 -243 345 -431 580 -493 66 -17
223 -24 294 -12 135 23 293 124 385 248 47 62 108 196 124 269 3 11 8 31 11
44 4 12 8 83 10 157 5 190 -30 342 -114 505 -120 232 -314 405 -540 482 -96
32 -262 41 -359 19z"/>
<path d="M6221 4795 c-93 -21 -158 -44 -221 -78 -248 -135 -426 -370 -501
-662 -18 -71 -23 -118 -23 -225 -1 -156 4 -202 34 -289 103 -308 340 -486 630
-474 352 13 682 291 809 681 35 105 43 156 46 288 8 302 -128 570 -356 701
-110 63 -288 88 -418 58z"/>
<path d="M3325 3923 c-105 -15 -235 -51 -343 -94 -71 -28 -257 -116 -292 -138
-8 -5 -51 -31 -95 -58 -158 -94 -381 -261 -539 -402 -28 -26 -113 -109 -190
-186 -247 -249 -449 -507 -633 -810 -176 -289 -311 -646 -339 -900 -6 -52 -5
-238 1 -280 11 -71 60 -199 99 -258 158 -238 461 -362 876 -358 114 1 147 4
245 16 53 7 70 10 125 20 19 4 46 9 60 11 54 10 295 79 480 139 408 133 488
149 720 149 236 -1 328 -19 710 -143 476 -154 646 -189 920 -192 147 -2 226 7
404 46 41 9 122 39 156 56 19 11 38 19 42 19 29 0 187 124 241 190 51 60 112
189 132 275 78 335 -94 865 -453 1395 -55 82 -167 235 -182 250 -3 3 -23 28
-45 55 -21 28 -42 52 -45 55 -3 3 -34 39 -70 80 -36 41 -121 132 -190 201
-469 472 -980 780 -1420 859 -95 17 -272 19 -375 3z"/>
</g>
</svg>
